<mxfile host="Electron" agent="Mozilla/5.0 (Macintosh; Intel Mac OS X 10_15_7) AppleWebKit/537.36 (KHTML, like Gecko) draw.io/26.0.9 Chrome/128.0.6613.186 Electron/32.2.5 Safari/537.36" version="26.0.9">
  <diagram name="Page-1" id="SxFgVPT7Z6_eTKrGHsNR">
    <mxGraphModel dx="2537" dy="920" grid="1" gridSize="10" guides="1" tooltips="1" connect="1" arrows="1" fold="1" page="1" pageScale="1" pageWidth="1169" pageHeight="1654" math="0" shadow="0">
      <root>
        <mxCell id="0" />
        <mxCell id="1" parent="0" />
        <mxCell id="7tezufcK3x0pUca_TWKY-1" value="" style="whiteSpace=wrap;html=1;aspect=fixed;" parent="1" vertex="1">
          <mxGeometry x="80" y="130" width="160" height="160" as="geometry" />
        </mxCell>
        <mxCell id="7tezufcK3x0pUca_TWKY-3" value="&amp;lt;&amp;lt;enumeration&amp;gt;&amp;gt;&lt;div&gt;InteractionResuts&lt;/div&gt;" style="text;html=1;align=center;verticalAlign=middle;whiteSpace=wrap;rounded=0;" parent="1" vertex="1">
          <mxGeometry x="128" y="140" width="64" height="30" as="geometry" />
        </mxCell>
        <mxCell id="7tezufcK3x0pUca_TWKY-4" value="" style="endArrow=none;html=1;rounded=0;entryX=1;entryY=0.25;entryDx=0;entryDy=0;exitX=0;exitY=0.25;exitDx=0;exitDy=0;" parent="1" source="7tezufcK3x0pUca_TWKY-1" target="7tezufcK3x0pUca_TWKY-1" edge="1">
          <mxGeometry width="50" height="50" relative="1" as="geometry">
            <mxPoint x="110" y="210" as="sourcePoint" />
            <mxPoint x="160" y="160" as="targetPoint" />
          </mxGeometry>
        </mxCell>
        <mxCell id="7tezufcK3x0pUca_TWKY-5" value="&lt;div&gt;&lt;br&gt;&lt;/div&gt;" style="text;html=1;align=center;verticalAlign=middle;whiteSpace=wrap;rounded=0;" parent="1" vertex="1">
          <mxGeometry x="120" y="200" width="60" height="30" as="geometry" />
        </mxCell>
        <mxCell id="7tezufcK3x0pUca_TWKY-6" value="" style="whiteSpace=wrap;html=1;aspect=fixed;" parent="1" vertex="1">
          <mxGeometry x="385" y="70" width="380" height="380" as="geometry" />
        </mxCell>
        <mxCell id="7tezufcK3x0pUca_TWKY-8" value="" style="endArrow=none;html=1;rounded=0;" parent="1" edge="1">
          <mxGeometry width="50" height="50" relative="1" as="geometry">
            <mxPoint x="390" y="100" as="sourcePoint" />
            <mxPoint x="760" y="100" as="targetPoint" />
          </mxGeometry>
        </mxCell>
        <mxCell id="7tezufcK3x0pUca_TWKY-9" value="Player" style="text;html=1;align=center;verticalAlign=middle;whiteSpace=wrap;rounded=0;" parent="1" vertex="1">
          <mxGeometry x="500" y="70" width="170" height="30" as="geometry" />
        </mxCell>
        <mxCell id="7tezufcK3x0pUca_TWKY-13" value="" style="endArrow=none;html=1;rounded=0;exitX=0.004;exitY=0.4;exitDx=0;exitDy=0;exitPerimeter=0;" parent="1" source="7tezufcK3x0pUca_TWKY-6" edge="1">
          <mxGeometry width="50" height="50" relative="1" as="geometry">
            <mxPoint x="410" y="280" as="sourcePoint" />
            <mxPoint x="767" y="220" as="targetPoint" />
          </mxGeometry>
        </mxCell>
        <mxCell id="7tezufcK3x0pUca_TWKY-14" value="&lt;div&gt;&lt;br&gt;&lt;/div&gt;" style="text;html=1;align=center;verticalAlign=middle;whiteSpace=wrap;rounded=0;" parent="1" vertex="1">
          <mxGeometry x="435" y="308" width="205" height="20" as="geometry" />
        </mxCell>
        <mxCell id="7tezufcK3x0pUca_TWKY-24" value="" style="html=1;shadow=0;dashed=0;align=center;verticalAlign=middle;shape=mxgraph.arrows2.arrow;dy=0.6;dx=40;flipH=1;notch=0;" parent="1" vertex="1">
          <mxGeometry x="250" y="220" width="20" height="20" as="geometry" />
        </mxCell>
        <mxCell id="7tezufcK3x0pUca_TWKY-26" value="" style="endArrow=none;dashed=1;html=1;dashPattern=1 3;strokeWidth=2;rounded=0;exitX=0;exitY=0.5;exitDx=0;exitDy=0;exitPerimeter=0;entryX=0;entryY=1;entryDx=0;entryDy=0;" parent="1" source="7tezufcK3x0pUca_TWKY-24" edge="1">
          <mxGeometry width="50" height="50" relative="1" as="geometry">
            <mxPoint x="300" y="270" as="sourcePoint" />
            <mxPoint x="380.00000000000114" y="228" as="targetPoint" />
          </mxGeometry>
        </mxCell>
        <mxCell id="7tezufcK3x0pUca_TWKY-31" value="+ POINTS_TO_DIE: int = 2&#xa;+ POINTS_TO_ADVANCE: int = 2&#xa;- locations: int&#xa;- levelPoints: int&#xa;- damagePoints: int&#xa;- symbol: char = &#39;p&#39;&#xa;+ playerStatus: enum = {DEAD, ADVANCING, OK}" style="text;whiteSpace=wrap;" parent="1" vertex="1">
          <mxGeometry x="480" y="110" width="300" height="120" as="geometry" />
        </mxCell>
        <mxCell id="7tezufcK3x0pUca_TWKY-32" value="+ HIT&#xa;+ KILL&#xa;+ ADVANCE&#xa;+ GET_POINT&#xa;+ NONE" style="text;whiteSpace=wrap;" parent="1" vertex="1">
          <mxGeometry x="105" y="180" width="110" height="100" as="geometry" />
        </mxCell>
        <mxCell id="7tezufcK3x0pUca_TWKY-33" value="" style="whiteSpace=wrap;html=1;aspect=fixed;" parent="1" vertex="1">
          <mxGeometry x="80" y="410" width="170" height="170" as="geometry" />
        </mxCell>
        <mxCell id="7tezufcK3x0pUca_TWKY-34" value="Padme" style="text;html=1;align=center;verticalAlign=middle;whiteSpace=wrap;rounded=0;" parent="1" vertex="1">
          <mxGeometry x="120" y="420" width="80" height="30" as="geometry" />
        </mxCell>
        <mxCell id="7tezufcK3x0pUca_TWKY-35" value="" style="endArrow=none;html=1;rounded=0;exitX=0;exitY=0.25;exitDx=0;exitDy=0;entryX=1;entryY=0.25;entryDx=0;entryDy=0;" parent="1" source="7tezufcK3x0pUca_TWKY-33" target="7tezufcK3x0pUca_TWKY-33" edge="1">
          <mxGeometry width="50" height="50" relative="1" as="geometry">
            <mxPoint x="460" y="570" as="sourcePoint" />
            <mxPoint x="510" y="520" as="targetPoint" />
          </mxGeometry>
        </mxCell>
        <mxCell id="7tezufcK3x0pUca_TWKY-37" value="&lt;h1 style=&quot;margin-top: 0px;&quot;&gt;&lt;br&gt;&lt;/h1&gt;&lt;div&gt;&lt;br&gt;&lt;/div&gt;&lt;div&gt;&lt;div&gt;+ player(int)&lt;/div&gt;&lt;div&gt;+ resetLevel(int): void&lt;/div&gt;&lt;div&gt;+ canAdvance(): boolean&lt;/div&gt;&lt;div&gt;+ isDead(): boolean&lt;/div&gt;&lt;div&gt;+ addPoint(): void&lt;/div&gt;&lt;div&gt;+ takeDamage(): void&lt;/div&gt;&lt;div&gt;+ killed(): void&lt;/div&gt;&lt;div&gt;+ wonAdvance(): void&lt;/div&gt;&lt;div&gt;+ doMove(Drawable[]): void&lt;/div&gt;&lt;div&gt;+ &lt;i&gt;getPlayerChoices(): int&lt;/i&gt;&lt;/div&gt;&lt;div&gt;- displayMenu(): void&lt;/div&gt;&lt;div&gt;- updatePlayerLocation(int): boolean&lt;/div&gt;&lt;div&gt;+ &lt;i&gt;getLocation(): int&lt;/i&gt;&lt;/div&gt;&lt;div&gt;+ draw(): void&lt;/div&gt;&lt;/div&gt;&lt;div&gt;&lt;br&gt;&lt;/div&gt;" style="text;html=1;whiteSpace=wrap;overflow=hidden;rounded=0;" parent="1" vertex="1">
          <mxGeometry x="480" y="160" width="210" height="300" as="geometry" />
        </mxCell>
        <mxCell id="7tezufcK3x0pUca_TWKY-38" value="" style="whiteSpace=wrap;html=1;aspect=fixed;" parent="1" vertex="1">
          <mxGeometry x="385.24" y="500" width="240" height="240" as="geometry" />
        </mxCell>
        <mxCell id="7tezufcK3x0pUca_TWKY-39" value="" style="endArrow=none;html=1;rounded=0;exitX=-0.001;exitY=0.151;exitDx=0;exitDy=0;exitPerimeter=0;" parent="1" source="7tezufcK3x0pUca_TWKY-38" edge="1">
          <mxGeometry width="50" height="50" relative="1" as="geometry">
            <mxPoint x="382.24" y="520" as="sourcePoint" />
            <mxPoint x="629.24" y="536" as="targetPoint" />
          </mxGeometry>
        </mxCell>
        <mxCell id="7tezufcK3x0pUca_TWKY-40" value="Drawable" style="text;html=1;align=center;verticalAlign=middle;whiteSpace=wrap;rounded=0;" parent="1" vertex="1">
          <mxGeometry x="465.24" y="500" width="60" height="30" as="geometry" />
        </mxCell>
        <mxCell id="7tezufcK3x0pUca_TWKY-41" value="+ draw(): void" style="text;html=1;whiteSpace=wrap;overflow=hidden;rounded=0;" parent="1" vertex="1">
          <mxGeometry x="440.24" y="550" width="130" height="50" as="geometry" />
        </mxCell>
        <mxCell id="7tezufcK3x0pUca_TWKY-43" value="" style="whiteSpace=wrap;html=1;aspect=fixed;" parent="1" vertex="1">
          <mxGeometry x="40" y="660" width="220" height="220" as="geometry" />
        </mxCell>
        <mxCell id="7tezufcK3x0pUca_TWKY-46" value="" style="endArrow=none;html=1;rounded=0;entryX=1.01;entryY=0.178;entryDx=0;entryDy=0;entryPerimeter=0;" parent="1" target="7tezufcK3x0pUca_TWKY-43" edge="1">
          <mxGeometry width="50" height="50" relative="1" as="geometry">
            <mxPoint x="40" y="700" as="sourcePoint" />
            <mxPoint x="90" y="650" as="targetPoint" />
          </mxGeometry>
        </mxCell>
        <mxCell id="7tezufcK3x0pUca_TWKY-48" value="DarthVader" style="text;html=1;align=center;verticalAlign=middle;whiteSpace=wrap;rounded=0;" parent="1" vertex="1">
          <mxGeometry x="110" y="670" width="60" height="30" as="geometry" />
        </mxCell>
        <mxCell id="7K_W08JmNn9Qx-t4ZDiZ-1" value="" style="whiteSpace=wrap;html=1;aspect=fixed;" vertex="1" parent="1">
          <mxGeometry x="-1000" y="55" width="420" height="420" as="geometry" />
        </mxCell>
        <mxCell id="7K_W08JmNn9Qx-t4ZDiZ-4" value="&amp;lt;&amp;lt;abstract&amp;gt;&amp;gt;&lt;div&gt;GamePiece&lt;/div&gt;" style="text;html=1;align=center;verticalAlign=middle;whiteSpace=wrap;rounded=0;" vertex="1" parent="1">
          <mxGeometry x="-874.76" y="55" width="129.76" height="30" as="geometry" />
        </mxCell>
        <mxCell id="7K_W08JmNn9Qx-t4ZDiZ-7" value="" style="endArrow=none;html=1;rounded=0;exitX=0;exitY=0.198;exitDx=0;exitDy=0;exitPerimeter=0;" edge="1" parent="1" source="7K_W08JmNn9Qx-t4ZDiZ-1">
          <mxGeometry width="50" height="50" relative="1" as="geometry">
            <mxPoint x="-922" y="138" as="sourcePoint" />
            <mxPoint x="-590" y="138" as="targetPoint" />
          </mxGeometry>
        </mxCell>
        <mxCell id="7K_W08JmNn9Qx-t4ZDiZ-8" value="&lt;h1 style=&quot;margin-top: 0px;&quot;&gt;&lt;br&gt;&lt;/h1&gt;&lt;div&gt;+ GamePiece(Char, String, int)&lt;/div&gt;&lt;div&gt;+ draw(): void&lt;/div&gt;&lt;div&gt;+ InteractionResult Interact(Drawable[] game Board,int) abstract&lt;/div&gt;&lt;div&gt;+ getLocation(): int&lt;/div&gt;&lt;div&gt;+ setLocation(): void&lt;/div&gt;&lt;div&gt;+ toString(): stri&lt;/div&gt;" style="text;html=1;whiteSpace=wrap;overflow=hidden;rounded=0;" vertex="1" parent="1">
          <mxGeometry x="-925" y="95" width="350" height="160" as="geometry" />
        </mxCell>
        <mxCell id="7K_W08JmNn9Qx-t4ZDiZ-5" value="&lt;h1 style=&quot;margin-top: 0px;&quot;&gt;&lt;br&gt;&lt;/h1&gt;&lt;div&gt;# symbol: char&lt;/div&gt;&lt;div&gt;- label: string&lt;/div&gt;&lt;div&gt;- location: int&lt;/div&gt;" style="text;html=1;whiteSpace=wrap;overflow=hidden;rounded=0;" vertex="1" parent="1">
          <mxGeometry x="-925" y="45" width="180" height="110" as="geometry" />
        </mxCell>
        <mxCell id="7K_W08JmNn9Qx-t4ZDiZ-12" value="" style="endArrow=none;html=1;rounded=0;exitX=0;exitY=0.071;exitDx=0;exitDy=0;exitPerimeter=0;entryX=1.008;entryY=0.071;entryDx=0;entryDy=0;entryPerimeter=0;" edge="1" parent="1" source="7K_W08JmNn9Qx-t4ZDiZ-1" target="7K_W08JmNn9Qx-t4ZDiZ-1">
          <mxGeometry width="50" height="50" relative="1" as="geometry">
            <mxPoint x="-770" y="245" as="sourcePoint" />
            <mxPoint x="-720" y="195" as="targetPoint" />
          </mxGeometry>
        </mxCell>
        <mxCell id="7K_W08JmNn9Qx-t4ZDiZ-13" value="" style="whiteSpace=wrap;html=1;aspect=fixed;" vertex="1" parent="1">
          <mxGeometry x="-995" y="580" width="415" height="415" as="geometry" />
        </mxCell>
        <mxCell id="7K_W08JmNn9Qx-t4ZDiZ-14" value="" style="endArrow=none;html=1;rounded=0;entryX=0.992;entryY=0.102;entryDx=0;entryDy=0;entryPerimeter=0;exitX=0.009;exitY=0.105;exitDx=0;exitDy=0;exitPerimeter=0;" edge="1" parent="1" source="7K_W08JmNn9Qx-t4ZDiZ-13" target="7K_W08JmNn9Qx-t4ZDiZ-13">
          <mxGeometry width="50" height="50" relative="1" as="geometry">
            <mxPoint x="-1005" y="840" as="sourcePoint" />
            <mxPoint x="-955" y="790" as="targetPoint" />
          </mxGeometry>
        </mxCell>
        <mxCell id="7K_W08JmNn9Qx-t4ZDiZ-15" value="GameEngine" style="text;html=1;align=center;verticalAlign=middle;whiteSpace=wrap;rounded=0;" vertex="1" parent="1">
          <mxGeometry x="-855" y="590" width="60" height="30" as="geometry" />
        </mxCell>
        <mxCell id="7K_W08JmNn9Qx-t4ZDiZ-16" value="+ BOARD_SIZE: int = 21&lt;div&gt;+ NUM_LEVELS: int = 2&lt;/div&gt;&lt;div&gt;- currentLevel: int&lt;/div&gt;&lt;div&gt;- LevelSetUp: levelData&lt;/div&gt;&lt;div&gt;- Drawable: [] gameBoard&lt;/div&gt;&lt;div&gt;- movingPieces: ArrayList&amp;lt;moveable&amp;gt;&lt;/div&gt;&lt;div&gt;- interacingPieces: ArrayList&amp;lt;GamePiece&amp;gt;&lt;/div&gt;&lt;div&gt;- player: player&lt;/div&gt;&lt;div&gt;&lt;br&gt;&lt;/div&gt;" style="text;html=1;whiteSpace=wrap;overflow=hidden;rounded=0;" vertex="1" parent="1">
          <mxGeometry x="-917.5" y="620" width="250" height="120" as="geometry" />
        </mxCell>
        <mxCell id="7K_W08JmNn9Qx-t4ZDiZ-17" value="" style="endArrow=none;html=1;rounded=0;exitX=-0.004;exitY=0.404;exitDx=0;exitDy=0;exitPerimeter=0;" edge="1" parent="1" source="7K_W08JmNn9Qx-t4ZDiZ-13">
          <mxGeometry width="50" height="50" relative="1" as="geometry">
            <mxPoint x="-955" y="820" as="sourcePoint" />
            <mxPoint x="-575" y="750" as="targetPoint" />
          </mxGeometry>
        </mxCell>
        <mxCell id="7K_W08JmNn9Qx-t4ZDiZ-19" value="+ GameEngine():&lt;div&gt;+ playGame(): void&lt;/div&gt;&lt;div&gt;+ playLevel(): void&lt;/div&gt;&lt;div&gt;+ setUpLevel(int): void&lt;/div&gt;&lt;div&gt;+ displayBoard(): void&lt;/div&gt;&lt;div&gt;+ movePieces(): void&lt;/div&gt;&lt;div&gt;+ interaction(): void&lt;/div&gt;&lt;div&gt;+ levelFinished(): boolean&lt;/div&gt;&lt;div&gt;&lt;br&gt;&lt;/div&gt;" style="text;html=1;whiteSpace=wrap;overflow=hidden;rounded=0;" vertex="1" parent="1">
          <mxGeometry x="-915" y="760" width="180" height="120" as="geometry" />
        </mxCell>
        <mxCell id="7K_W08JmNn9Qx-t4ZDiZ-32" value="" style="whiteSpace=wrap;html=1;aspect=fixed;" vertex="1" parent="1">
          <mxGeometry x="160" y="960" width="220" height="220" as="geometry" />
        </mxCell>
        <mxCell id="7K_W08JmNn9Qx-t4ZDiZ-33" value="" style="endArrow=none;html=1;rounded=0;entryX=1.01;entryY=0.178;entryDx=0;entryDy=0;entryPerimeter=0;" edge="1" parent="1" target="7K_W08JmNn9Qx-t4ZDiZ-32">
          <mxGeometry width="50" height="50" relative="1" as="geometry">
            <mxPoint x="160" y="1000" as="sourcePoint" />
            <mxPoint x="210" y="950" as="targetPoint" />
          </mxGeometry>
        </mxCell>
        <mxCell id="7K_W08JmNn9Qx-t4ZDiZ-34" value="Chewy" style="text;html=1;align=center;verticalAlign=middle;whiteSpace=wrap;rounded=0;" vertex="1" parent="1">
          <mxGeometry x="230" y="970" width="60" height="30" as="geometry" />
        </mxCell>
        <mxCell id="7K_W08JmNn9Qx-t4ZDiZ-35" value="" style="whiteSpace=wrap;html=1;aspect=fixed;" vertex="1" parent="1">
          <mxGeometry x="-360" y="880" width="220" height="220" as="geometry" />
        </mxCell>
        <mxCell id="7K_W08JmNn9Qx-t4ZDiZ-36" value="" style="endArrow=none;html=1;rounded=0;entryX=1.01;entryY=0.178;entryDx=0;entryDy=0;entryPerimeter=0;" edge="1" parent="1" target="7K_W08JmNn9Qx-t4ZDiZ-35">
          <mxGeometry width="50" height="50" relative="1" as="geometry">
            <mxPoint x="-360" y="920" as="sourcePoint" />
            <mxPoint x="-310" y="870" as="targetPoint" />
          </mxGeometry>
        </mxCell>
        <mxCell id="7K_W08JmNn9Qx-t4ZDiZ-37" value="C3P0&lt;div&gt;&lt;br&gt;&lt;/div&gt;" style="text;html=1;align=center;verticalAlign=middle;whiteSpace=wrap;rounded=0;" vertex="1" parent="1">
          <mxGeometry x="-290" y="890" width="60" height="30" as="geometry" />
        </mxCell>
        <mxCell id="7K_W08JmNn9Qx-t4ZDiZ-39" value="" style="whiteSpace=wrap;html=1;aspect=fixed;" vertex="1" parent="1">
          <mxGeometry x="510" y="840" width="220" height="220" as="geometry" />
        </mxCell>
        <mxCell id="7K_W08JmNn9Qx-t4ZDiZ-40" value="" style="endArrow=none;html=1;rounded=0;entryX=1.01;entryY=0.178;entryDx=0;entryDy=0;entryPerimeter=0;" edge="1" parent="1" target="7K_W08JmNn9Qx-t4ZDiZ-39">
          <mxGeometry width="50" height="50" relative="1" as="geometry">
            <mxPoint x="510" y="880" as="sourcePoint" />
            <mxPoint x="560" y="830" as="targetPoint" />
          </mxGeometry>
        </mxCell>
        <mxCell id="7K_W08JmNn9Qx-t4ZDiZ-41" value="Boba" style="text;html=1;align=center;verticalAlign=middle;whiteSpace=wrap;rounded=0;" vertex="1" parent="1">
          <mxGeometry x="580" y="850" width="60" height="30" as="geometry" />
        </mxCell>
        <mxCell id="7K_W08JmNn9Qx-t4ZDiZ-42" value="" style="whiteSpace=wrap;html=1;aspect=fixed;" vertex="1" parent="1">
          <mxGeometry x="450" y="1290" width="220" height="220" as="geometry" />
        </mxCell>
        <mxCell id="7K_W08JmNn9Qx-t4ZDiZ-43" value="" style="endArrow=none;html=1;rounded=0;entryX=1.01;entryY=0.178;entryDx=0;entryDy=0;entryPerimeter=0;" edge="1" parent="1" target="7K_W08JmNn9Qx-t4ZDiZ-42">
          <mxGeometry width="50" height="50" relative="1" as="geometry">
            <mxPoint x="450" y="1330" as="sourcePoint" />
            <mxPoint x="500" y="1280" as="targetPoint" />
          </mxGeometry>
        </mxCell>
        <mxCell id="7K_W08JmNn9Qx-t4ZDiZ-44" value="X-Wing" style="text;html=1;align=center;verticalAlign=middle;whiteSpace=wrap;rounded=0;" vertex="1" parent="1">
          <mxGeometry x="520" y="1300" width="60" height="30" as="geometry" />
        </mxCell>
        <mxCell id="7K_W08JmNn9Qx-t4ZDiZ-45" value="" style="whiteSpace=wrap;html=1;aspect=fixed;" vertex="1" parent="1">
          <mxGeometry x="130" y="1340" width="220" height="220" as="geometry" />
        </mxCell>
        <mxCell id="7K_W08JmNn9Qx-t4ZDiZ-46" value="" style="endArrow=none;html=1;rounded=0;entryX=1.01;entryY=0.178;entryDx=0;entryDy=0;entryPerimeter=0;" edge="1" parent="1" target="7K_W08JmNn9Qx-t4ZDiZ-45">
          <mxGeometry width="50" height="50" relative="1" as="geometry">
            <mxPoint x="130" y="1380" as="sourcePoint" />
            <mxPoint x="180" y="1330" as="targetPoint" />
          </mxGeometry>
        </mxCell>
        <mxCell id="7K_W08JmNn9Qx-t4ZDiZ-47" value="Palpatine" style="text;html=1;align=center;verticalAlign=middle;whiteSpace=wrap;rounded=0;" vertex="1" parent="1">
          <mxGeometry x="200" y="1350" width="60" height="30" as="geometry" />
        </mxCell>
        <mxCell id="7K_W08JmNn9Qx-t4ZDiZ-48" value="" style="whiteSpace=wrap;html=1;aspect=fixed;" vertex="1" parent="1">
          <mxGeometry x="-310" y="300" width="220" height="220" as="geometry" />
        </mxCell>
        <mxCell id="7K_W08JmNn9Qx-t4ZDiZ-49" value="" style="endArrow=none;html=1;rounded=0;entryX=1.01;entryY=0.178;entryDx=0;entryDy=0;entryPerimeter=0;" edge="1" parent="1" target="7K_W08JmNn9Qx-t4ZDiZ-48">
          <mxGeometry width="50" height="50" relative="1" as="geometry">
            <mxPoint x="-310" y="340" as="sourcePoint" />
            <mxPoint x="-260" y="290" as="targetPoint" />
          </mxGeometry>
        </mxCell>
        <mxCell id="7K_W08JmNn9Qx-t4ZDiZ-50" value="Moveable" style="text;html=1;align=center;verticalAlign=middle;whiteSpace=wrap;rounded=0;" vertex="1" parent="1">
          <mxGeometry x="-240" y="310" width="60" height="30" as="geometry" />
        </mxCell>
        <mxCell id="7K_W08JmNn9Qx-t4ZDiZ-53" value="+ move(Drawable[], int): void" style="text;html=1;align=center;verticalAlign=middle;whiteSpace=wrap;rounded=0;" vertex="1" parent="1">
          <mxGeometry x="-300" y="350" width="190" height="30" as="geometry" />
        </mxCell>
        <mxCell id="7K_W08JmNn9Qx-t4ZDiZ-58" value="" style="whiteSpace=wrap;html=1;aspect=fixed;" vertex="1" parent="1">
          <mxGeometry x="-780" y="1260" width="220" height="220" as="geometry" />
        </mxCell>
        <mxCell id="7K_W08JmNn9Qx-t4ZDiZ-59" value="" style="endArrow=none;html=1;rounded=0;entryX=1.01;entryY=0.178;entryDx=0;entryDy=0;entryPerimeter=0;" edge="1" parent="1" target="7K_W08JmNn9Qx-t4ZDiZ-58">
          <mxGeometry width="50" height="50" relative="1" as="geometry">
            <mxPoint x="-780" y="1300" as="sourcePoint" />
            <mxPoint x="-730" y="1250" as="targetPoint" />
          </mxGeometry>
        </mxCell>
        <mxCell id="7K_W08JmNn9Qx-t4ZDiZ-60" value="&amp;lt;&amp;lt;abstract&amp;gt;&amp;gt;&lt;div&gt;Random MotionPiece&lt;/div&gt;" style="text;html=1;align=center;verticalAlign=middle;whiteSpace=wrap;rounded=0;" vertex="1" parent="1">
          <mxGeometry x="-774" y="1270" width="190" height="30" as="geometry" />
        </mxCell>
      </root>
    </mxGraphModel>
  </diagram>
</mxfile>
